<svg width="431" height="269" viewBox="0 0 431 269" fill="none" xmlns="http://www.w3.org/2000/svg">
<path d="M20 130.191C20 69.4394 69.2487 20.1907 130 20.1907H431V240.191H130C69.2487 240.191 20 190.942 20 130.191Z" fill="url(#paint0_linear_103_9)"/>
<g filter="url(#filter0_d_103_9)">
<circle cx="134" cy="130.191" r="99" fill="white"/>
</g>
<path d="M157.521 50.6924L142.606 47.5749C139.662 47.2238 136.701 47.0354 133.737 47.0105L205.977 172.141C206.38 171.442 206.756 170.743 207.132 170.044L148.061 67.7311L211.782 159.536L212.588 157.144L147.846 63.8611L215.786 144.029C215.786 143.116 216.055 142.229 216.162 141.342L147.685 60.448L216.592 125.781C216.592 124.76 216.592 123.739 216.377 122.744L147.551 57.5724L212.884 105.652C212.534 104.523 212.131 103.394 211.728 102.266L147.577 55.073L203.343 85.4418C202.537 84.1786 201.677 82.9424 200.817 81.733L147.792 52.8424L188.105 67.7311C186.492 66.3336 184.853 65.0436 183.16 63.7268L148.222 50.8267L169.024 55.073C165.297 53.3438 161.454 51.8799 157.521 50.6924Z" fill="#5EB674"/>
<path d="M51.0162 149.7L55.7731 164.185C56.94 166.944 58.2589 169.636 59.7237 172.248L131.964 47.0105H129.572L70.4469 149.324L118.15 48.3005C117.317 48.4349 116.484 48.5961 115.678 48.7842L67.3025 151.474L102.724 52.6005L100.224 53.6217L64.4269 153.328L86.4912 60.9855L84.0994 62.7055L62.0619 154.887L71.0381 74.2617C70.2319 75.1486 69.4525 76.0355 68.7 76.9492L59.9119 156.123L58.165 92.698C57.4931 94.0417 56.8481 95.3855 56.23 96.7561L57.7619 157.198L50.5056 114.736C50.1025 116.886 49.7531 118.928 49.5112 121.024L55.8 157.682L49.1619 137.472C49.4882 141.587 50.1079 145.673 51.0162 149.7Z" fill="#5EB674"/>
<path d="M189.96 192.539L200.146 181.171C201.905 178.795 203.538 176.328 205.037 173.78H60.584C60.9871 174.452 61.3902 175.151 61.8202 175.823L180.07 175.823L68.5927 185.094C69.1302 185.739 69.6946 186.384 70.259 187.003L183.537 177.569L80.1759 196.382L82.3259 198.048L186.547 179.236L95.414 206.164L98.1015 207.481L188.912 180.472L114.71 212.991C115.866 213.259 117.021 213.501 118.204 213.689L191.17 181.735L136.99 214.872C138.495 214.872 139.973 214.684 141.478 214.523L192.997 183.025L159.968 210.438C161.983 209.766 163.945 209.013 165.907 208.18L194.502 184.423L180.312 200.198C183.714 197.889 186.939 195.329 189.96 192.539Z" fill="#5EB674"/>
<defs>
<filter id="filter0_d_103_9" x="0" y="0.190674" width="268" height="268" filterUnits="userSpaceOnUse" color-interpolation-filters="sRGB">
<feFlood flood-opacity="0" result="BackgroundImageFix"/>
<feColorMatrix in="SourceAlpha" type="matrix" values="0 0 0 0 0 0 0 0 0 0 0 0 0 0 0 0 0 0 127 0" result="hardAlpha"/>
<feOffset dy="4"/>
<feGaussianBlur stdDeviation="17.5"/>
<feComposite in2="hardAlpha" operator="out"/>
<feColorMatrix type="matrix" values="0 0 0 0 0 0 0 0 0 0 0 0 0 0 0 0 0 0 0.12 0"/>
<feBlend mode="normal" in2="BackgroundImageFix" result="effect1_dropShadow_103_9"/>
<feBlend mode="normal" in="SourceGraphic" in2="effect1_dropShadow_103_9" result="shape"/>
</filter>
<linearGradient id="paint0_linear_103_9" x1="70.7301" y1="43.6803" x2="959.142" y2="316.367" gradientUnits="userSpaceOnUse">
<stop stop-color="#5EB674" stop-opacity="0.53"/>
<stop offset="0.432292" stop-color="#EFEFEF"/>
</linearGradient>
</defs>
</svg>
