<svg width="346" height="347" viewBox="0 0 346 347" fill="none" xmlns="http://www.w3.org/2000/svg">
<path d="M223.698 7.68391L192.906 1.24811C186.829 0.523443 180.717 0.134485 174.597 0.0830078L323.73 258.403C324.563 256.96 325.339 255.518 326.116 254.075L204.169 42.8589L335.714 232.382L337.379 227.444L203.725 34.8696L343.981 200.37C343.981 198.483 344.536 196.652 344.758 194.822L203.392 27.8235L345.645 162.698C345.645 160.59 345.646 158.481 345.202 156.429L203.115 21.8871L337.989 121.143C337.268 118.812 336.436 116.482 335.603 114.152L203.17 16.7273L318.293 79.4209C316.629 76.8133 314.854 74.2612 313.078 71.7645L203.614 12.1224L286.836 42.8589C283.507 39.9739 280.122 37.3108 276.627 34.5922L204.502 7.96132L247.444 16.7273C239.752 13.1575 231.816 10.1355 223.698 7.68391Z" fill="#E3E7EA"/>
<path d="M3.82819 212.076L13.6483 241.98C16.0573 247.675 18.7801 253.231 21.8041 258.624L170.937 0.0827637L165.999 0.0827637L43.941 211.299L142.42 2.74585C140.7 3.02326 138.98 3.35615 137.316 3.74451L37.4497 215.738L110.574 11.6228L105.414 13.7311L31.5132 219.566L77.0632 28.9329L72.1254 32.4837L26.6309 222.784L45.1616 56.3406C43.4972 58.1714 41.8882 60.0023 40.3347 61.8887L22.1924 225.336L18.5862 94.4006C17.1991 97.1746 15.8676 99.9487 14.5915 102.778L17.7539 227.555L2.77405 139.895C1.94184 144.334 1.22058 148.55 0.721254 152.878L13.7038 228.554L0 186.832C0.673669 195.327 1.95299 203.763 3.82819 212.076Z" fill="#E3E7EA"/>
<path d="M290.665 300.512L311.692 277.044C315.324 272.139 318.695 267.047 321.79 261.787H23.5791C24.4114 263.174 25.2436 264.616 26.1313 266.003H270.248L40.1125 285.144C41.2221 286.476 42.3872 287.807 43.5523 289.083L277.405 269.609L64.0248 308.446L68.4633 311.886L283.619 273.049L95.4826 328.641L101.031 331.36L288.501 275.601L135.318 342.733C137.704 343.288 140.089 343.788 142.531 344.176L293.162 278.209L181.312 346.617C184.419 346.617 187.47 346.229 190.577 345.896L296.934 280.872L228.748 337.463C232.909 336.076 236.959 334.522 241.009 332.802L300.041 283.757L270.747 316.325C277.771 311.557 284.429 306.272 290.665 300.512Z" fill="#E3E7EA"/>
</svg>
