<svg width="85" height="42" viewBox="0 0 85 42" fill="none" xmlns="http://www.w3.org/2000/svg">
<path d="M3.95508 1V17H0.572266V1H3.95508ZM6.73828 1H10.9102L15.3164 11.75H15.5039L19.9102 1H24.082V17H20.8008V6.58594H20.668L16.5273 16.9219H14.293L10.1523 6.54687H10.0195V17H6.73828V1ZM26.8691 17V1H33.1816C34.3952 1 35.429 1.23177 36.2832 1.69531C37.1374 2.15365 37.7884 2.79167 38.2363 3.60937C38.6895 4.42187 38.916 5.35937 38.916 6.42187C38.916 7.48437 38.6868 8.42187 38.2285 9.23437C37.7702 10.0469 37.1061 10.6797 36.2363 11.1328C35.3717 11.5859 34.3249 11.8125 33.0957 11.8125H29.0723V9.10156H32.5488C33.1999 9.10156 33.7363 8.98958 34.1582 8.76562C34.5853 8.53646 34.903 8.22135 35.1113 7.82031C35.3249 7.41406 35.4316 6.94792 35.4316 6.42187C35.4316 5.89062 35.3249 5.42708 35.1113 5.03125C34.903 4.63021 34.5853 4.32031 34.1582 4.10156C33.7311 3.8776 33.1895 3.76562 32.5332 3.76562H30.252V17H26.8691ZM42.0234 17H38.3984L43.9219 1H48.2813L53.7969 17H50.1719L46.1641 4.65625H46.0391L42.0234 17ZM41.7969 10.7109H50.3594V13.3516H41.7969V10.7109ZM69.0879 6.60156H65.666C65.6035 6.15885 65.4759 5.76562 65.2832 5.42187C65.0905 5.07292 64.8431 4.77604 64.541 4.53125C64.2389 4.28646 63.89 4.09896 63.4941 3.96875C63.1035 3.83854 62.679 3.77344 62.2207 3.77344C61.3926 3.77344 60.6712 3.97917 60.0566 4.39062C59.4421 4.79687 58.9655 5.39062 58.627 6.17188C58.2884 6.94792 58.1191 7.89062 58.1191 9C58.1191 10.1406 58.2884 11.099 58.627 11.875C58.9707 12.651 59.4499 13.237 60.0645 13.6328C60.679 14.0286 61.39 14.2266 62.1973 14.2266C62.6504 14.2266 63.0697 14.1667 63.4551 14.0469C63.8457 13.9271 64.1921 13.7526 64.4941 13.5234C64.7962 13.2891 65.0462 13.0052 65.2441 12.6719C65.4473 12.3385 65.5879 11.9583 65.666 11.5312L69.0879 11.5469C68.9993 12.2812 68.778 12.9896 68.4238 13.6719C68.0749 14.349 67.6035 14.9557 67.0098 15.4922C66.4212 16.0234 65.7181 16.4453 64.9004 16.7578C64.0879 17.0651 63.1686 17.2187 62.1426 17.2187C60.7155 17.2187 59.4395 16.8958 58.3145 16.25C57.1947 15.6042 56.3092 14.6693 55.6582 13.4453C55.0124 12.2214 54.6895 10.7396 54.6895 9C54.6895 7.25521 55.0176 5.77083 55.6738 4.54688C56.3301 3.32292 57.2207 2.39062 58.3457 1.75C59.4707 1.10417 60.7363 0.781249 62.1426 0.781249C63.0697 0.781249 63.929 0.911458 64.7207 1.17187C65.5176 1.43229 66.2233 1.8125 66.8379 2.3125C67.4525 2.80729 67.9525 3.41406 68.3379 4.13281C68.7285 4.85156 68.9785 5.67448 69.0879 6.60156ZM70.9043 3.78906V1H84.0449V3.78906H79.1465V17H75.8027V3.78906H70.9043ZM14.4893 31H12.728C12.6238 30.4934 12.4415 30.0483 12.1811 29.6648C11.9254 29.2812 11.6129 28.9593 11.2436 28.6989C10.879 28.4337 10.4742 28.2348 10.0291 28.1023C9.58404 27.9697 9.12003 27.9034 8.63707 27.9034C7.75639 27.9034 6.95857 28.1259 6.24361 28.571C5.53338 29.0161 4.96757 29.6719 4.54616 30.5384C4.1295 31.4048 3.92116 32.4678 3.92116 33.7273C3.92116 34.9867 4.1295 36.0497 4.54616 36.9162C4.96757 37.7827 5.53338 38.4384 6.24361 38.8835C6.95857 39.3286 7.75639 39.5511 8.63707 39.5511C9.12003 39.5511 9.58404 39.4848 10.0291 39.3523C10.4742 39.2197 10.879 39.0232 11.2436 38.7628C11.6129 38.4976 11.9254 38.1733 12.1811 37.7898C12.4415 37.4015 12.6238 36.9564 12.728 36.4545H14.4893C14.3568 37.1979 14.1153 37.8632 13.7649 38.4503C13.4145 39.0374 12.9789 39.5369 12.4581 39.9489C11.9373 40.3561 11.3525 40.6662 10.7038 40.8793C10.0599 41.0923 9.37098 41.1989 8.63707 41.1989C7.39654 41.1989 6.29332 40.8958 5.32741 40.2898C4.36151 39.6837 3.60156 38.822 3.04759 37.7045C2.49361 36.5871 2.21662 35.2614 2.21662 33.7273C2.21662 32.1932 2.49361 30.8674 3.04759 29.75C3.60156 28.6326 4.36151 27.7708 5.32741 27.1648C6.29332 26.5587 7.39654 26.2557 8.63707 26.2557C9.37098 26.2557 10.0599 26.3622 10.7038 26.5753C11.3525 26.7884 11.9373 27.1009 12.4581 27.5128C12.9789 27.92 13.4145 28.4171 13.7649 29.0043C14.1153 29.5866 14.3568 30.2519 14.4893 31ZM17.9322 41H16.0856L21.4265 26.4545H23.2447L28.5856 41H26.739L22.3924 28.7557H22.2788L17.9322 41ZM18.614 35.3182H26.0572V36.8807H18.614V35.3182ZM30.8512 41V26.4545H35.766C36.9071 26.4545 37.8398 26.6605 38.5643 27.0724C39.2934 27.4796 39.8332 28.0312 40.1836 28.7273C40.534 29.4233 40.7092 30.1998 40.7092 31.0568C40.7092 31.9138 40.534 32.6927 40.1836 33.3935C39.838 34.0942 39.3029 34.6529 38.5785 35.0696C37.854 35.4815 36.926 35.6875 35.7944 35.6875H32.2717V34.125H35.7376C36.5188 34.125 37.1462 33.9901 37.6197 33.7202C38.0932 33.4503 38.4364 33.0857 38.6495 32.6264C38.8673 32.1624 38.9762 31.6392 38.9762 31.0568C38.9762 30.4744 38.8673 29.9536 38.6495 29.4943C38.4364 29.035 38.0908 28.6752 37.6126 28.4148C37.1344 28.1496 36.4999 28.017 35.7092 28.017H32.6126V41H30.8512ZM45.3079 26.4545V41H43.5465V26.4545H45.3079ZM48.044 28.017V26.4545H58.9531V28.017H54.3793V41H52.6179V28.017H48.044ZM60.5689 41H58.7223L64.0632 26.4545H65.8814L71.2223 41H69.3757L65.0291 28.7557H64.9155L60.5689 41ZM61.2507 35.3182H68.6939V36.8807H61.2507V35.3182ZM73.4879 41V26.4545H75.2493V39.4375H82.0107V41H73.4879Z" fill="black"/>
</svg>
