<svg width="50" height="51" viewBox="0 0 50 51" fill="none" xmlns="http://www.w3.org/2000/svg">
<path d="M32.3596 1.09952L27.9053 0.16854C27.0263 0.0637119 26.1421 0.00744649 25.2568 0L46.83 37.3677C46.9503 37.1591 47.0627 36.9504 47.1751 36.7417L29.5345 6.18783L48.5635 33.6037L48.8043 32.8894L29.4703 5.03212L49.7594 28.9728C49.7594 28.7 49.8396 28.4351 49.8717 28.1703L29.4222 4.01286L50.0001 23.5234C50.0001 23.2184 50.0001 22.9134 49.9359 22.6165L29.3821 3.15411L48.8926 17.5121C48.7882 17.175 48.6679 16.838 48.5475 16.5009L29.3901 2.40771L46.0434 11.4768C45.8027 11.0996 45.5458 10.7304 45.289 10.3692L29.4543 1.74158L41.4929 6.18783C41.0113 5.77049 40.5218 5.38526 40.0161 4.992L29.5827 1.13965L35.7946 2.40771C34.6818 1.89132 33.534 1.45417 32.3596 1.09952Z" fill="#5EB674"/>
<path d="M0.553774 30.6663L1.97433 34.9921C2.3228 35.8159 2.71666 36.6197 3.15411 37.3998L24.7272 0L24.0129 0L6.35637 30.5539L20.602 0.385234C20.3532 0.425363 20.1044 0.473517 19.8636 0.529697L5.41736 31.196L15.9953 1.66935L15.2489 1.97433L4.55861 31.7497L11.1477 4.17337L10.4334 4.68702L3.85234 32.2152L6.53293 8.13808C6.29216 8.40293 6.05942 8.66778 5.8347 8.94065L3.21029 32.5844L2.68862 13.6437C2.48797 14.045 2.29536 14.4463 2.11076 14.8556L2.56823 32.9054L0.401286 20.2248C0.2809 20.8669 0.176566 21.4768 0.104334 22.1028L1.98235 33.0499L0 27.0146C0.0974509 28.2434 0.282513 29.4638 0.553774 30.6663Z" fill="#5EB674"/>
<path d="M42.047 43.4591L45.0888 40.0642C45.6142 39.3548 46.1017 38.6181 46.5494 37.8572L3.41122 37.8572C3.53161 38.0578 3.652 38.2665 3.78041 38.4671L39.0936 38.4671L5.80289 41.236C5.9634 41.4286 6.13194 41.6212 6.30048 41.8058L40.1289 38.9888L9.26197 44.6068L9.90403 45.1044L41.0278 39.4864L13.8126 47.5282L14.6151 47.9214L41.734 39.8556L19.575 49.5667C19.9201 49.647 20.2652 49.7192 20.6184 49.7754L42.4082 40.2328L26.2283 50.1285C26.6778 50.1285 27.1192 50.0723 27.5686 50.0242L42.9539 40.618L33.0903 48.8043C33.6923 48.6036 34.2781 48.3789 34.864 48.1301L43.4034 41.0354L39.1658 45.7465C40.1818 45.0569 41.1449 44.2923 42.047 43.4591Z" fill="#5EB674"/>
</svg>
