<svg width="50" height="50" viewBox="0 0 50 50" fill="none" xmlns="http://www.w3.org/2000/svg">
<g clip-path="url(#clip0_62_14)">
<path d="M25.9294 16.1983C25.9294 16.6653 25.5511 17.0438 25.0839 17.0438C20.736 17.0438 17.211 20.5684 17.211 24.9167C17.211 29.2648 20.736 32.7898 25.0839 32.7898C29.4324 32.7898 32.957 29.2648 32.957 24.9167C32.957 24.4497 33.3355 24.0713 33.8025 24.0713C34.2695 24.0713 34.648 24.4497 34.648 24.9167C34.648 30.1985 30.3662 34.4804 25.0839 34.4804C19.8022 34.4804 15.5204 30.1985 15.5204 24.9167C15.5204 19.6346 19.8022 15.3528 25.0839 15.3528C25.5511 15.3528 25.9294 15.7313 25.9294 16.1983Z" stroke="#5EB674" stroke-width="0.8"/>
<path d="M18.2485 3.53164L18.1287 3.15001C22.5963 1.74714 27.3866 1.74689 31.8543 3.14926C32.3014 3.2829 32.7725 3.02965 32.9073 2.58271C33.04 2.14239 32.7972 1.67704 32.36 1.53382C19.4012 -2.5307 5.60038 4.67889 1.53471 17.638L1.15306 17.5182L1.53471 17.638C-2.53127 30.5974 4.67869 44.3995 17.6382 48.4654C30.598 52.5314 44.3997 45.3217 48.4656 32.3619C49.9693 27.5694 49.9694 22.4314 48.466 17.6387L18.2485 3.53164ZM18.2485 3.53164L18.1287 3.15002C6.0573 6.9409 -0.655894 19.8001 3.13539 31.8718C6.92618 43.9436 19.7853 50.6563 31.8567 46.8655C43.9273 43.075 50.64 30.2181 46.8516 18.1473M18.2485 3.53164L46.8516 18.1473M46.8516 18.1473C46.7243 17.7102 46.9656 17.2504 47.3982 17.1072L46.8516 18.1473ZM47.3983 17.1072C47.8403 16.9611 48.3161 17.1985 48.4657 17.6378L47.3983 17.1072Z" stroke="#5EB674" stroke-width="0.8"/>
<path d="M26.1759 7.9417V7.94172L26.1799 7.94202C26.6746 7.97911 27.0563 8.39197 27.0554 8.88743L27.0553 8.89032L27.0552 8.89331L27.0549 8.89879C27.0368 9.3263 26.6775 9.65869 26.2505 9.64437L26.028 9.62575L26.0261 9.62559L26.0157 9.62466C25.721 9.59856 25.4084 9.57087 25.0833 9.57087H25.083C16.6073 9.57117 9.73734 16.4421 9.73774 24.9172C9.73805 33.3923 16.6085 40.2632 25.0841 40.2628C33.5592 40.262 40.4296 33.3916 40.4293 24.9161C40.4293 24.5872 40.4008 24.2708 40.3739 23.9715L40.3738 23.9712L40.3718 23.9491L40.3675 23.9274C40.3633 23.9072 40.3601 23.889 40.3575 23.8716C40.2904 23.4065 40.6126 22.9749 41.077 22.9076L41.0773 22.9075C41.5409 22.84 41.9716 23.16 42.0412 23.6229C42.094 24.052 42.1203 24.4841 42.1203 24.9169C42.1203 34.3257 34.4926 41.9534 25.0836 41.9534C15.6744 41.9534 8.04673 34.3257 8.04673 24.9168C8.04673 15.5075 15.6744 7.87986 25.0836 7.87986C25.4459 7.87986 25.8014 7.90984 26.1759 7.9417Z" stroke="#5EB674" stroke-width="0.8"/>
<path d="M32.9562 11.2164V11.2163C32.9562 11.1054 32.978 10.9955 33.0205 10.893C33.063 10.7905 33.1253 10.6975 33.2038 10.6191L33.2041 10.6188L40.6771 3.14578L40.6771 3.14577C40.8355 2.98736 41.0503 2.89834 41.2744 2.89829L41.2745 2.89829C41.7417 2.89803 42.1202 3.27655 42.1202 3.74341V7.47993V7.87993H42.5202H46.2567H46.2567C46.3677 7.87992 46.4776 7.90177 46.5801 7.94424C46.6827 7.9867 46.7758 8.04893 46.8543 8.1274C47.1845 8.45763 47.1844 8.99287 46.8543 9.32297L47.1371 9.60581L46.8543 9.32298L39.3817 16.796C39.3817 16.796 39.3817 16.796 39.3816 16.796C39.2226 16.9549 39.0077 17.0439 38.7836 17.0439H34.3175H34.1518L34.0347 17.1611L25.6812 25.5145L25.6811 25.5144L25.6758 25.52C25.6694 25.5266 25.6628 25.5332 25.6561 25.5396L25.6555 25.5402C25.3199 25.8645 24.7845 25.8553 24.4599 25.5194C24.1355 25.1836 24.1447 24.6482 24.4806 24.3238L24.4806 24.3238L24.4855 24.3189L32.839 15.9655L32.9562 15.8484V15.6827V11.2164ZM34.7644 11.4493L34.6472 11.5665V11.7322V14.9529V15.3529H35.0472H38.2679H38.4336L38.5508 15.2357L43.5328 10.2538L44.2156 9.57095H43.2499H41.2747C40.8078 9.57095 40.4291 9.19232 40.4291 8.72544V6.75015V5.78445L39.7463 6.46731L34.7644 11.4493Z" stroke="#5EB674" stroke-width="0.8"/>
</g>
<defs>
<clipPath id="clip0_62_14">
<rect width="50" height="50" fill="white"/>
</clipPath>
</defs>
</svg>
