<svg width="50" height="50" viewBox="0 0 50 50" fill="none" xmlns="http://www.w3.org/2000/svg">
<path d="M49.4008 24.3799C46.7961 20.7446 41.0648 14.8067 34.6889 11.684C31.4317 10.0889 28.2055 9.28672 25.0977 9.28672C21.991 9.28672 18.7552 10.0883 15.4783 11.6828C9.55195 14.5665 3.66297 20.1809 0.604669 24.3723L0.604657 24.3723C0.471664 24.5546 0.4 24.7743 0.4 25C0.4 25.2256 0.471665 25.4453 0.604656 25.6276C0.709412 25.7711 3.39884 29.432 7.73586 33.134L7.47617 33.4383L7.73587 33.134C12.6454 37.325 18.6827 40.7133 25.0977 40.7133C31.489 40.7133 37.4796 37.3496 42.3664 33.1302C46.6546 29.4277 49.2965 25.7658 49.4009 25.6202L49.4008 24.3799ZM49.4008 24.3799C49.5303 24.5608 49.6 24.7776 49.6 25.0001C49.6 25.2224 49.5304 25.4392 49.401 25.6201L49.4008 24.3799ZM3.01347 24.7484L2.80896 25.0003L3.01329 25.2524C5.62903 28.4793 9.02815 31.8098 12.8264 34.3367C16.6215 36.8616 20.8441 38.6031 25.0977 38.6031C30.3733 38.6031 35.2496 36.0033 39.0865 33.06C42.9296 30.112 45.7764 26.7836 47.0009 25.249L47.1999 24.9997L47.0011 24.7503C44.4334 21.5275 41.0807 18.1964 37.3162 15.6678C33.5546 13.141 29.3534 11.3969 25.0977 11.3969C19.8248 11.3969 14.9166 13.9926 11.0407 16.9334C7.15839 19.8791 4.26486 23.2069 3.01347 24.7484Z" stroke="#5EB674" stroke-width="0.8"/>
<path d="M15.0484 25C15.0484 19.5666 19.6341 15.1461 25.0977 15.1461C30.5307 15.1461 34.9516 19.5669 34.9516 25C34.9516 30.4331 30.5307 34.8539 25.0977 34.8539C19.6225 34.8539 15.0484 30.4236 15.0484 25ZM17.1586 24.9805C17.1586 29.18 20.8093 32.7438 25.0977 32.7438C29.3585 32.7438 32.8414 29.2386 32.8414 24.9805C32.8414 20.7196 29.3558 17.2563 25.0977 17.2563C20.8121 17.2563 17.1586 20.7783 17.1586 24.9805Z" stroke="#5EB674" stroke-width="0.8"/>
<path d="M20.9078 25C20.9078 22.855 22.814 21.0055 25.0977 21.0055C27.2999 21.0055 29.0922 22.7978 29.0922 25C29.0922 27.2022 27.2999 28.9945 25.0977 28.9945C22.814 28.9945 20.9078 27.145 20.9078 25ZM23.0375 25C23.0375 25.5187 23.3114 25.9908 23.6803 26.3221C24.0517 26.6557 24.5592 26.8844 25.0977 26.8844C26.1331 26.8844 26.9625 26.0217 26.9625 25C26.9625 23.9714 26.1263 23.1352 25.0977 23.1352C24.5624 23.1352 24.0556 23.3565 23.6829 23.6853C23.3126 24.012 23.0375 24.4801 23.0375 25Z" stroke="#5EB674" stroke-width="0.8"/>
</svg>
