<svg width="25" height="16" viewBox="0 0 25 16" fill="none" xmlns="http://www.w3.org/2000/svg">
<path d="M1.5 7C0.947715 7 0.5 7.44772 0.5 8C0.5 8.55228 0.947715 9 1.5 9L1.5 7ZM24.2071 8.70711C24.5976 8.31658 24.5976 7.68342 24.2071 7.2929L17.8431 0.928934C17.4526 0.538409 16.8195 0.538409 16.4289 0.928933C16.0384 1.31946 16.0384 1.95262 16.4289 2.34315L22.0858 8L16.4289 13.6569C16.0384 14.0474 16.0384 14.6805 16.4289 15.0711C16.8195 15.4616 17.4526 15.4616 17.8431 15.0711L24.2071 8.70711ZM1.5 9L23.5 9L23.5 7L1.5 7L1.5 9Z" fill="white"/>
</svg>
