<svg width="27" height="159" viewBox="0 0 27 159" fill="none" xmlns="http://www.w3.org/2000/svg">
<path d="M26 1H27V0H26V1ZM26 151V152H27V151H26ZM5.29289 150.293C4.90237 150.683 4.90237 151.317 5.29289 151.707L11.6569 158.071C12.0474 158.462 12.6805 158.462 13.0711 158.071C13.4616 157.681 13.4616 157.047 13.0711 156.657L7.41421 151L13.0711 145.343C13.4616 144.953 13.4616 144.319 13.0711 143.929C12.6805 143.538 12.0474 143.538 11.6569 143.929L5.29289 150.293ZM0.5 2H26V0H0.5V2ZM25 1V151H27V1H25ZM26 150H6V152H26V150Z" fill="white"/>
</svg>
