<svg width="18" height="227" viewBox="0 0 18 227" fill="none" xmlns="http://www.w3.org/2000/svg">
<path d="M17 1H18V0H17V1ZM17 219V220H18V219H17ZM2.95956 218.293C2.56904 218.683 2.56904 219.317 2.95956 219.707L9.32352 226.071C9.71405 226.462 10.3472 226.462 10.7377 226.071C11.1283 225.681 11.1283 225.047 10.7377 224.657L5.08088 219L10.7377 213.343C11.1283 212.953 11.1283 212.319 10.7377 211.929C10.3472 211.538 9.71405 211.538 9.32352 211.929L2.95956 218.293ZM0 2H17V0H0V2ZM16 1V219H18V1H16ZM17 218H3.66667V220H17V218Z" fill="white"/>
</svg>
