<svg width="45" height="74" viewBox="0 0 45 74" fill="none" xmlns="http://www.w3.org/2000/svg">
<path d="M37 1.00001L38 1.00001L38 7.76825e-06L37 7.7486e-06L37 1.00001ZM36.2929 73.7071C36.6834 74.0976 37.3166 74.0976 37.7071 73.7071L44.0711 67.3431C44.4616 66.9526 44.4616 66.3194 44.0711 65.9289C43.6805 65.5384 43.0474 65.5384 42.6568 65.9289L37 71.5858L31.3431 65.9289C30.9526 65.5384 30.3194 65.5384 29.9289 65.9289C29.5384 66.3195 29.5384 66.9526 29.9289 67.3431L36.2929 73.7071ZM36 1.00001L36 73L38 73L38 1.00001L36 1.00001ZM37 7.7486e-06L-1.20039e-08 5.88935e-06L1.20039e-08 2.00001L37 2.00001L37 7.7486e-06Z" fill="white"/>
</svg>
