<svg width="26" height="25" viewBox="0 0 26 25" fill="none" xmlns="http://www.w3.org/2000/svg">
<path d="M19.1226 17.3763L14.2463 12.5L19.1226 7.62374C19.2878 7.45847 19.3807 7.23432 19.3807 7.0006C19.3807 6.76688 19.2878 6.54273 19.1226 6.37746C18.9573 6.21219 18.7331 6.11935 18.4994 6.11935C18.2657 6.11935 18.0415 6.21219 17.8763 6.37746L13 11.2537L8.12373 6.37746C7.95846 6.21219 7.73431 6.11935 7.50059 6.11935C7.26687 6.11935 7.04272 6.21219 6.87745 6.37746C6.71218 6.54273 6.61934 6.76688 6.61934 7.0006C6.61934 7.23432 6.71218 7.45847 6.87745 7.62374L11.7537 12.5L6.87745 17.3763C6.71218 17.5416 6.61934 17.7657 6.61934 17.9994C6.61934 18.2331 6.71218 18.4573 6.87745 18.6226C7.04272 18.7878 7.26687 18.8807 7.50059 18.8807C7.73431 18.8807 7.95846 18.7878 8.12373 18.6226L13 13.7463L17.8763 18.6226C18.0415 18.7878 18.2657 18.8807 18.4994 18.8807C18.7331 18.8807 18.9573 18.7878 19.1226 18.6226C19.2878 18.4573 19.3807 18.2331 19.3807 17.9994C19.3807 17.7657 19.2878 17.5416 19.1226 17.3763Z" fill="white" stroke="white" stroke-width="0.2"/>
</svg>
