<svg width="19" height="20" viewBox="0 0 19 20" fill="none" xmlns="http://www.w3.org/2000/svg">
<g clip-path="url(#clip0_62_79)">
<path d="M18.4556 9.68023C18.098 9.68023 17.8113 9.96694 17.8113 10.3246V15.2762C17.8113 16.5676 16.7594 17.6157 15.4718 17.6157H3.52823C2.23679 17.6157 1.18871 16.5638 1.18871 15.2762V10.2439C1.18871 9.88629 0.902003 9.59958 0.544355 9.59958C0.186707 9.59958 -0.1 9.88629 -0.1 10.2439V15.2762C-0.1 17.2791 1.52952 18.9044 3.52823 18.9044H15.4718C17.4747 18.9044 19.1 17.2749 19.1 15.2762V10.3246C19.1 9.97145 18.8138 9.68023 18.4556 9.68023Z" fill="#5EB674" stroke="#5EB674" stroke-width="0.2"/>
<path d="M12.5018 10.1814L10.1443 12.5426V1.73991C10.1443 1.38226 9.85762 1.09556 9.49998 1.09556C9.14233 1.09556 8.85562 1.38226 8.85562 1.73991V12.5428L6.49407 10.1813C6.24131 9.92854 5.83525 9.92854 5.58249 10.1813C5.32973 10.4341 5.32973 10.8401 5.58249 11.0929L5.58253 11.0929L9.0462 14.5526C9.04622 14.5526 9.04623 14.5526 9.04624 14.5526C9.16973 14.6761 9.33623 14.7431 9.49998 14.7431C9.66174 14.7431 9.82929 14.6814 9.95439 14.5519L13.4134 11.0929C13.6662 10.8401 13.6662 10.4341 13.4134 10.1813C13.1607 9.92854 12.7546 9.92854 12.5018 10.1813L12.5018 10.1814Z" fill="#5EB674" stroke="#5EB674" stroke-width="0.2"/>
</g>
<defs>
<clipPath id="clip0_62_79">
<rect width="19" height="19" fill="white" transform="translate(0 0.5)"/>
</clipPath>
</defs>
</svg>
