<svg width="25" height="26" viewBox="0 0 25 26" fill="none" xmlns="http://www.w3.org/2000/svg">
<path d="M12.5001 20.0312C7.61451 20.0312 3.6149 15.8008 2.12193 13.982C1.65787 13.4004 1.65787 12.6 2.11451 12.027C3.6149 10.1992 7.61568 5.96875 12.5001 5.96875C17.3868 5.96875 21.3856 10.1992 22.8778 12.018C23.3419 12.5992 23.3422 13.3996 22.886 13.973C21.3852 15.8008 17.3844 20.0312 12.5001 20.0312ZM12.5001 7.53125C8.16412 7.53125 4.38443 11.7242 3.32935 13.0094C4.38443 14.2758 8.16334 18.4688 12.5001 18.4688C16.836 18.4688 20.6157 14.2758 21.6708 12.9906C20.6157 11.7242 16.8379 7.53125 12.5001 7.53125Z" fill="#5EB674"/>
<path d="M12.5 16.5156C10.5617 16.5156 8.98438 14.9387 8.98438 13C8.98438 11.0617 10.5617 9.48438 12.5 9.48438C14.4387 9.48438 16.0156 11.0617 16.0156 13C16.0156 14.9387 14.4387 16.5156 12.5 16.5156ZM12.5 11.0469C11.423 11.0469 10.5469 11.923 10.5469 13C10.5469 14.077 11.423 14.9531 12.5 14.9531C13.577 14.9531 14.4531 14.077 14.4531 13C14.4531 11.923 13.577 11.0469 12.5 11.0469Z" fill="#5EB674"/>
</svg>
