<svg width="30" height="30" viewBox="0 0 30 30" fill="none" xmlns="http://www.w3.org/2000/svg">
<path d="M27.363 3.57422H2.63646C2.23059 3.57422 1.85061 3.674 1.50684 3.83848L14.9412 17.2728L17.9522 14.379C17.9522 14.379 17.9525 14.3787 17.9525 14.3786C17.9526 14.3785 17.9528 14.3784 17.9528 14.3784L28.4931 3.83871C28.1492 3.67412 27.769 3.57422 27.363 3.57422Z" fill="#5EB674"/>
<path d="M29.7361 5.08167L19.8171 15.0001L29.7357 24.9186C29.9002 24.5749 30 24.1949 30 23.789V6.21088C30 5.80524 29.9004 5.42532 29.7361 5.08167Z" fill="#5EB674"/>
<path d="M0.264258 5.0813C0.0997852 5.42507 0 5.80505 0 6.21093V23.7891C0 24.1947 0.099668 24.5747 0.264023 24.9184L10.183 15L0.264258 5.0813Z" fill="#5EB674"/>
<path d="M18.5742 16.2429L15.5628 19.137C15.3911 19.3087 15.1662 19.3946 14.9414 19.3946C14.7166 19.3946 14.4916 19.3087 14.32 19.137L11.4257 16.2428L1.50659 26.1613C1.85042 26.3258 2.23063 26.4257 2.63663 26.4257H27.3632C27.7691 26.4257 28.1491 26.326 28.4928 26.1615L18.5742 16.2429Z" fill="#5EB674"/>
</svg>
