<svg width="46" height="46" viewBox="0 0 46 46" fill="none" xmlns="http://www.w3.org/2000/svg">
<path d="M41.6875 24.4375H4.3125C3.93125 24.4375 3.56562 24.2861 3.29603 24.0165C3.02645 23.7469 2.875 23.3812 2.875 23C2.875 22.6188 3.02645 22.2531 3.29603 21.9835C3.56562 21.714 3.93125 21.5625 4.3125 21.5625H41.6875C42.0687 21.5625 42.4344 21.714 42.704 21.9835C42.9735 22.2531 43.125 22.6188 43.125 23C43.125 23.3812 42.9735 23.7469 42.704 24.0165C42.4344 24.2861 42.0687 24.4375 41.6875 24.4375ZM43.125 33.0625C43.125 32.6813 42.9735 32.3156 42.704 32.046C42.4344 31.7764 42.0687 31.625 41.6875 31.625H4.3125C3.93125 31.625 3.56562 31.7764 3.29603 32.046C3.02645 32.3156 2.875 32.6813 2.875 33.0625C2.875 33.4437 3.02645 33.8094 3.29603 34.079C3.56562 34.3486 3.93125 34.5 4.3125 34.5H41.6875C42.0687 34.5 42.4344 34.3486 42.704 34.079C42.9735 33.8094 43.125 33.4437 43.125 33.0625ZM43.125 12.9375C43.125 12.5563 42.9735 12.1906 42.704 11.921C42.4344 11.6515 42.0687 11.5 41.6875 11.5H4.3125C3.93125 11.5 3.56562 11.6515 3.29603 11.921C3.02645 12.1906 2.875 12.5563 2.875 12.9375C2.875 13.3187 3.02645 13.6844 3.29603 13.954C3.56562 14.2235 3.93125 14.375 4.3125 14.375H41.6875C42.0687 14.375 42.4344 14.2235 42.704 13.954C42.9735 13.6844 43.125 13.3187 43.125 12.9375Z" fill="white"/>
</svg>
