<svg width="34" height="32" viewBox="0 0 34 32" fill="none" xmlns="http://www.w3.org/2000/svg">
<path fill-rule="evenodd" clip-rule="evenodd" d="M28.5617 25.1103C28.4024 25.2692 28.2102 25.4723 28.0064 25.6872C27.4979 26.2269 26.8627 26.8977 26.4645 27.1698C24.3697 28.6013 21.5671 27.9163 19.5847 27.0903C16.9696 26.0007 14.1225 23.9923 11.566 21.4356C9.00722 18.8786 6.99901 16.0306 5.9094 13.417C5.0844 11.4342 4.39801 8.63106 5.82971 6.53575C6.10158 6.13731 6.77401 5.50305 7.31297 4.99356C7.5286 4.79041 7.73016 4.59845 7.88954 4.43959C8.17249 4.15805 8.5554 4 8.95456 4C9.35372 4 9.73663 4.15805 10.0196 4.43959L13.874 8.29291C14.1554 8.57584 14.3134 8.95866 14.3134 9.3577C14.3134 9.75673 14.1554 10.1395 13.874 10.4225L12.824 11.4704C12.4734 11.8185 12.2445 12.2705 12.1714 12.7592C12.0984 13.2478 12.1851 13.747 12.4186 14.1825C13.8628 16.9083 16.0924 19.1375 18.8184 20.5812C19.2538 20.8147 19.7529 20.9013 20.2414 20.8281C20.7299 20.7549 21.1818 20.5259 21.5296 20.1752L22.577 19.1272C22.86 18.8457 23.2429 18.6876 23.642 18.6876C24.0412 18.6876 24.4241 18.8457 24.7071 19.1272L28.5617 22.9812C28.8431 23.264 29.0011 23.6468 29.0011 24.0457C29.0011 24.4447 28.8431 24.8275 28.5617 25.1103Z" fill="#5EB674"/>
</svg>
