<svg width="25" height="25" viewBox="0 0 25 25" fill="none" xmlns="http://www.w3.org/2000/svg">
<path d="M20.2773 11.6188H13.3813V4.72266C13.3813 4.48893 13.2884 4.26478 13.1231 4.09952C12.9579 3.93425 12.7337 3.84141 12.5 3.84141C12.2663 3.84141 12.0421 3.93425 11.8769 4.09952C11.7116 4.26478 11.6188 4.48893 11.6188 4.72266V11.6188H4.72266C4.48893 11.6188 4.26478 11.7116 4.09952 11.8769C3.93425 12.0421 3.84141 12.2663 3.84141 12.5C3.84141 12.7337 3.93425 12.9579 4.09952 13.1231C4.26478 13.2884 4.48893 13.3813 4.72266 13.3813H11.6188V20.2773C11.6188 20.5111 11.7116 20.7352 11.8769 20.9005C12.0421 21.0657 12.2663 21.1586 12.5 21.1586C12.7337 21.1586 12.9579 21.0657 13.1231 20.9005C13.2884 20.7352 13.3813 20.5111 13.3813 20.2773V13.3813H20.2773C20.5111 13.3813 20.7352 13.2884 20.9005 13.1231C21.0657 12.9579 21.1586 12.7337 21.1586 12.5C21.1586 12.2663 21.0657 12.0421 20.9005 11.8769C20.7352 11.7116 20.5111 11.6188 20.2773 11.6188Z" fill="white" stroke="white" stroke-width="0.2"/>
</svg>
