<svg width="30" height="30" viewBox="0 0 30 30" fill="none" xmlns="http://www.w3.org/2000/svg">
<g clip-path="url(#clip0_1_142)">
<path fill-rule="evenodd" clip-rule="evenodd" d="M28.7089 8.91391H22.0354C21.703 6.82316 21.1975 4.89725 20.5372 3.24689C20.1275 2.22139 19.6669 1.3327 19.1652 0.589023C23.4333 1.8243 26.9237 4.90897 28.7089 8.91391ZM19.1652 29.4111C19.6669 28.6664 20.1275 27.7783 20.5372 26.7525C21.1975 25.1018 21.703 23.176 22.0354 21.0852H28.7089C26.9237 25.0911 23.4333 28.1755 19.1652 29.4111ZM1.29088 21.0852H7.96477C8.29682 23.176 8.8026 25.1019 9.46254 26.7526C9.87322 27.7784 10.3332 28.6664 10.8349 29.4111C6.56649 28.1755 3.07647 25.0911 1.29088 21.0852ZM10.8349 0.589023C10.3332 1.3327 9.87328 2.22139 9.46254 3.24689C8.80254 4.89725 8.29682 6.82316 7.96477 8.91391H1.29088C3.07647 4.90897 6.56649 1.8243 10.8349 0.589023ZM15.0001 -0.000488281C13.7913 -0.000488281 12.4648 1.51088 11.4522 4.04236C10.8842 5.46338 10.4403 7.11473 10.1345 8.91391H19.8656C19.5595 7.11473 19.1162 5.46338 18.5479 4.04236C17.5354 1.51094 16.2088 -0.000488281 15.0001 -0.000488281ZM1.28574e-06 14.9996C1.28574e-06 13.6357 0.184161 12.3136 0.526935 11.0569H7.6902C7.56445 12.3344 7.49936 13.6556 7.49936 14.9996C7.49936 16.3435 7.56445 17.6647 7.6902 18.9426H0.526994C0.176678 17.6575 -0.000550773 16.3315 1.28574e-06 14.9996ZM9.84293 18.9426C9.71057 17.6723 9.64201 16.3499 9.64201 14.9996C9.64201 13.6503 9.71057 12.3279 9.84293 11.0569H20.1569C20.2896 12.3279 20.3578 13.6503 20.3578 14.9996C20.3578 16.3499 20.2896 17.6723 20.1569 18.9426H9.84293ZM15.0001 29.9996C16.2088 29.9996 17.5354 28.4883 18.5479 25.9571C19.1162 24.5367 19.5595 22.8847 19.8656 21.0852H10.1345C10.4403 22.8847 10.8842 24.5367 11.4522 25.9571C12.4648 28.4883 13.7913 29.9996 15.0001 29.9996ZM30.0001 14.9996C30.0001 16.3637 29.816 17.6856 29.4731 18.9426H22.3099C22.4357 17.6646 22.5008 16.3435 22.5008 14.9996C22.5008 13.6556 22.4357 12.3344 22.3099 11.0569H29.4732C29.8235 12.3418 30.0007 13.6677 30.0001 14.9996Z" fill="#5EB674"/>
</g>
<defs>
<clipPath id="clip0_1_142">
<rect width="30" height="30" fill="white"/>
</clipPath>
</defs>
</svg>
