<svg width="224" height="63" viewBox="0 0 224 63" fill="none" xmlns="http://www.w3.org/2000/svg">
<g clip-path="url(#clip0_1_491)">
<path d="M76.82 7.69995H78.14V13.15L83 7.69995H84.65L79.53 13.4L85 19.27H83.35L78.14 13.65V19.27H76.82V7.69995Z" fill="white"/>
<path d="M89.39 7.69995H91.39L95.77 19.27H94.37L93.29 16.27H87.49L86.41 19.27H85L89.39 7.69995ZM92.78 15.05L90.54 9.04995H90.21L87.98 15.05H92.78Z" fill="white"/>
<path d="M96.33 18.2L103 8.93995H96.42V7.69995H104.6V8.76995L98 18H104.69V19.24H96.33V18.2Z" fill="white"/>
<path d="M109.64 7.69995H111.64L116 19.27H114.6L113.53 16.27H107.74L106.67 19.27H105.26L109.64 7.69995ZM113 15.05L110.77 9.04995H110.44L108.21 15.05H113Z" fill="white"/>
<path d="M117.33 7.69995H118.66V13.15L123.53 7.69995H125.19L120.06 13.4L125.52 19.27H123.86L118.66 13.65V19.27H117.33V7.69995Z" fill="white"/>
<path d="M126.84 7.69995H128.17V12.82H134.61V7.69995H135.94V19.27H134.61V14.06H128.17V19.27H126.84V7.69995Z" fill="white"/>
<path d="M139.33 15.88C139.33 17.12 140.4 18.2 142.39 18.2C144.38 18.2 145.28 17.29 145.28 16.13C145.28 15.13 144.62 14.48 143.28 14.23L141.05 13.82C139.2 13.47 138.24 12.49 138.24 10.82C138.24 8.92001 139.75 7.51001 142.24 7.51001C144.89 7.51001 146.54 9.08001 146.54 11.07H145.2C145.2 9.83001 144.12 8.75001 142.2 8.75001C140.46 8.75001 139.55 9.65001 139.55 10.82C139.55 11.75 140.13 12.39 141.46 12.64L143.27 12.97C145.59 13.38 146.58 14.37 146.58 16.11C146.58 18.01 145.09 19.42 142.37 19.42C139.65 19.42 138 17.78 138 15.88H139.33Z" fill="white"/>
<path d="M151.32 8.93995H147.51V7.69995H156.44V8.93995H152.64V19.27H151.32V8.93995Z" fill="white"/>
<path d="M160.24 7.69995H162.24L166.62 19.27H165.2L164.13 16.27H158.34L157.27 19.27H155.86L160.24 7.69995ZM163.63 15.05L161.4 9.04995H161.07L158.84 15.05H163.63Z" fill="white"/>
<path d="M167.93 7.69995H170.17L175.37 17.7H175.71V7.69995H177V19.27H174.8L169.59 9.26995H169.26V19.27H167.93V7.69995Z" fill="white"/>
<path d="M75.58 25.4399H78L81 34.3699H81.33L84.33 25.4399H86.73L82.69 36.9999H79.55L75.58 25.4399Z" fill="#5EB674"/>
<path d="M88 25.4399H95.77V27.4399H90.13V30.2499H95.42V32.2499H90.13V34.9999H95.75V36.9999H88V25.4399Z" fill="#5EB674"/>
<path d="M97.9 25.4399H100.8L105.01 33.4399H105.34V25.4399H107.49V36.9999H104.6L100.38 28.9999H100.05V36.9999H97.9V25.4399Z" fill="#5EB674"/>
<path d="M112.54 27.5099H109.07V25.4399H118.16V27.5099H114.69V36.9999H112.54V27.5099Z" fill="#5EB674"/>
<path d="M119.65 25.4399H121.8V32.2999C121.778 32.661 121.83 33.0227 121.953 33.3629C122.075 33.7031 122.267 34.0145 122.514 34.278C122.762 34.5415 123.061 34.7515 123.393 34.8951C123.725 35.0386 124.083 35.1127 124.445 35.1127C124.807 35.1127 125.165 35.0386 125.497 34.8951C125.829 34.7515 126.128 34.5415 126.376 34.278C126.623 34.0145 126.815 33.7031 126.937 33.3629C127.06 33.0227 127.112 32.661 127.09 32.2999V25.4399H129.24V32.2999C129.27 32.9481 129.168 33.5954 128.94 34.203C128.712 34.8105 128.364 35.3656 127.916 35.8347C127.468 36.3039 126.929 36.6772 126.332 36.9323C125.736 37.1874 125.094 37.319 124.445 37.319C123.796 37.319 123.154 37.1874 122.558 36.9323C121.961 36.6772 121.422 36.3039 120.974 35.8347C120.526 35.3656 120.178 34.8105 119.95 34.203C119.722 33.5954 119.62 32.9481 119.65 32.2999V25.4399Z" fill="#5EB674"/>
<path d="M131.64 25.44H136.93C137.43 25.4388 137.924 25.5405 138.383 25.7389C138.842 25.9372 139.255 26.228 139.596 26.5929C139.938 26.9578 140.201 27.3892 140.368 27.8601C140.536 28.331 140.604 28.8313 140.57 29.33C140.593 29.7971 140.523 30.2641 140.365 30.7042C140.207 31.1443 139.963 31.5488 139.648 31.8945C139.333 32.2402 138.953 32.5202 138.529 32.7185C138.106 32.9168 137.647 33.0294 137.18 33.05L140.9 37.05H138.17L134.45 33.05H133.79V37.05H131.64V25.44ZM136.85 31.06C137.287 31.0366 137.697 30.8418 137.991 30.5179C138.285 30.1939 138.439 29.767 138.42 29.33C138.438 29.1071 138.411 28.8829 138.342 28.6705C138.272 28.458 138.161 28.2614 138.015 28.0922C137.869 27.9229 137.691 27.7843 137.491 27.6843C137.291 27.5844 137.073 27.5251 136.85 27.51H133.79V31.06H136.85Z" fill="#5EB674"/>
<path d="M142.63 25.4399H150.4V27.4399H144.78V30.2499H150.07V32.2499H144.78V34.9999H150.4V36.9999H142.63V25.4399Z" fill="#5EB674"/>
<path d="M167 32.8799C166.78 34.097 166.136 35.1967 165.182 35.9839C164.229 36.7712 163.027 37.1949 161.79 37.1799C161.025 37.1755 160.269 37.0161 159.567 36.7113C158.866 36.4065 158.233 35.9626 157.708 35.4065C157.183 34.8504 156.775 34.1936 156.511 33.4757C156.247 32.7579 156.131 31.9939 156.17 31.2299C156.131 30.466 156.247 29.702 156.511 28.9841C156.775 28.2663 157.183 27.6095 157.708 27.0533C158.233 26.4972 158.866 26.0534 159.567 25.7486C160.269 25.4437 161.025 25.2843 161.79 25.2799C163.013 25.265 164.202 25.6775 165.154 26.4461C166.105 27.2147 166.758 28.2912 167 29.4899H164.77C164.561 28.8607 164.158 28.3138 163.619 27.9276C163.08 27.5414 162.433 27.3357 161.77 27.3399C159.77 27.3399 158.3 28.8499 158.3 31.2299C158.3 33.6099 159.79 35.1099 161.77 35.1099C162.445 35.1153 163.102 34.9004 163.644 34.498C164.185 34.0955 164.581 33.5274 164.77 32.8799H167Z" fill="#5EB674"/>
<path d="M171.41 25.4399H174.55L178.68 36.9999H176.28L175.41 34.5199H170.55L169.67 36.9999H167.27L171.41 25.4399ZM174.71 32.5499L173.14 27.9199H172.81L171.24 32.5499H174.71Z" fill="#5EB674"/>
<path d="M179.92 25.4401H185.13C185.634 25.425 186.135 25.5173 186.6 25.7109C187.066 25.9045 187.484 26.1949 187.829 26.5629C188.173 26.9309 188.435 27.368 188.597 27.8451C188.76 28.3222 188.818 28.8284 188.77 29.3301C188.819 29.8313 188.76 30.337 188.597 30.8137C188.435 31.2903 188.173 31.7268 187.828 32.094C187.484 32.4613 187.065 32.7508 186.6 32.9432C186.134 33.1357 185.633 33.2267 185.13 33.2101H182.07V37.0001H179.92V25.4401ZM185.05 31.1501C185.97 31.1501 186.62 30.5001 186.62 29.3301C186.62 28.1601 185.97 27.5101 185.05 27.5101H182.05V31.1501H185.05Z" fill="#5EB674"/>
<path d="M190.67 25.4399H192.82V36.9999H190.67V25.4399Z" fill="#5EB674"/>
<path d="M197.86 27.5099H194.39V25.4399H203.49V27.5099H200V36.9999H197.85L197.86 27.5099Z" fill="#5EB674"/>
<path d="M207 25.4399H210.14L214.23 36.9999H211.84L211 34.5399H206.1L205.22 36.9999H202.83L207 25.4399ZM210.31 32.5499L208.74 27.9199H208.4L206.83 32.5499H210.31Z" fill="#5EB674"/>
<path d="M215.48 25.4399H217.63V34.9999H223.08V36.9999H215.48V25.4399Z" fill="#5EB674"/>
<path d="M79.88 43.1899H81.88L86.26 54.7599H84.86L83.78 51.7599H78L76.92 54.7599H75.5L79.88 43.1899ZM83.27 50.5399L81 44.5899H80.67L78.43 50.5399H83.27Z" fill="white"/>
<path d="M88.31 51.37C88.31 52.61 89.39 53.69 91.37 53.69C93.35 53.69 94.26 52.78 94.26 51.62C94.26 50.62 93.6 49.96 92.26 49.72L90.03 49.3C88.18 48.96 87.22 47.98 87.22 46.3C87.22 44.4 88.72 42.99 91.22 42.99C93.86 42.99 95.51 44.56 95.51 46.55H94.18C94.18 45.31 93.11 44.23 91.18 44.23C89.44 44.23 88.53 45.12 88.53 46.3C88.53 47.22 89.11 47.87 90.43 48.12L92.25 48.45C94.57 48.86 95.56 49.85 95.56 51.59C95.56 53.49 94.07 54.89 91.34 54.89C88.61 54.89 87 53.27 87 51.37H88.31Z" fill="white"/>
<path d="M98.48 51.37C98.48 52.61 99.56 53.69 101.54 53.69C103.52 53.69 104.43 52.78 104.43 51.62C104.43 50.62 103.77 49.96 102.43 49.72L100.2 49.3C98.35 48.96 97.39 47.98 97.39 46.3C97.39 44.4 98.89 42.99 101.39 42.99C104.03 42.99 105.68 44.56 105.68 46.55H104.36C104.36 45.31 103.29 44.23 101.36 44.23C99.62 44.23 98.71 45.12 98.71 46.3C98.71 47.22 99.29 47.87 100.61 48.12L102.43 48.45C104.74 48.86 105.74 49.85 105.74 51.59C105.74 53.49 104.25 54.89 101.52 54.89C98.79 54.89 97.14 53.24 97.14 51.34L98.48 51.37Z" fill="white"/>
<path d="M107.41 49C107.365 48.2444 107.474 47.4876 107.732 46.776C107.99 46.0644 108.391 45.4131 108.91 44.8621C109.428 44.311 110.055 43.872 110.749 43.5719C111.444 43.2718 112.193 43.1169 112.95 43.1169C113.707 43.1169 114.456 43.2718 115.151 43.5719C115.845 43.872 116.472 44.311 116.99 44.8621C117.509 45.4131 117.91 46.0644 118.168 46.776C118.426 47.4876 118.535 48.2444 118.49 49C118.535 49.7555 118.426 50.5123 118.168 51.2239C117.91 51.9355 117.509 52.5868 116.99 53.1379C116.472 53.6889 115.845 54.1279 115.151 54.4281C114.456 54.7282 113.707 54.883 112.95 54.883C112.193 54.883 111.444 54.7282 110.749 54.4281C110.055 54.1279 109.428 53.6889 108.91 53.1379C108.391 52.5868 107.99 51.9355 107.732 51.2239C107.474 50.5123 107.365 49.7555 107.41 49ZM117.17 49C117.17 46.18 115.27 44.29 112.95 44.29C110.63 44.29 108.73 46.18 108.73 49C108.73 51.82 110.64 53.72 112.95 53.72C115.26 53.72 117.17 51.8 117.17 49Z" fill="white"/>
<path d="M130.81 50.9999C130.546 52.1551 129.891 53.1838 128.956 53.9124C128.022 54.6411 126.865 55.0252 125.68 54.9999C124.915 54.9937 124.159 54.8307 123.459 54.5209C122.759 54.2112 122.13 53.7613 121.611 53.1991C121.092 52.6368 120.694 51.9741 120.441 51.2519C120.188 50.5297 120.085 49.7633 120.14 48.9999C120.087 48.237 120.19 47.4711 120.444 46.7496C120.697 46.028 121.096 45.3659 121.615 44.8039C122.134 44.242 122.762 43.7921 123.461 43.4819C124.16 43.1716 124.915 43.0076 125.68 42.9999C126.849 42.9727 127.993 43.3425 128.924 44.049C129.856 44.7555 130.521 45.757 130.81 46.8899H129.4C129.15 46.1056 128.652 45.4235 127.981 44.9457C127.31 44.468 126.503 44.2204 125.68 44.2399C123.37 44.2399 121.47 46.1299 121.47 48.9499C121.47 51.7699 123.37 53.6699 125.68 53.6699C126.506 53.6898 127.316 53.44 127.987 52.9582C128.659 52.4764 129.155 51.7889 129.4 50.9999H130.81Z" fill="white"/>
<path d="M132.71 43.1899H134V54.7599H132.68L132.71 43.1899Z" fill="white"/>
<path d="M139.74 43.1899H141.74L146.12 54.7599H144.72L143.64 51.7599H137.86L136.78 54.7599H135.38L139.74 43.1899ZM143.13 50.5399L140.9 44.5899H140.57L138.33 50.5399H143.13Z" fill="white"/>
<path d="M149.33 44.4299H145.53V43.1899H154.46V44.4299H150.65V54.7599H149.33V44.4299Z" fill="white"/>
<path d="M156.19 43.1899H157.52V54.7599H156.19V43.1899Z" fill="white"/>
<path d="M159.67 49C159.614 48.2389 159.715 47.4744 159.968 46.7542C160.221 46.0341 160.619 45.3738 161.139 44.8147C161.658 44.2556 162.288 43.8096 162.987 43.5046C163.687 43.1996 164.442 43.0422 165.205 43.0422C165.968 43.0422 166.723 43.1996 167.423 43.5046C168.122 43.8096 168.752 44.2556 169.271 44.8147C169.791 45.3738 170.189 46.0341 170.442 46.7542C170.695 47.4744 170.796 48.2389 170.74 49C170.796 49.7611 170.695 50.5257 170.442 51.2458C170.189 51.9659 169.791 52.6262 169.271 53.1853C168.752 53.7444 168.122 54.1904 167.423 54.4954C166.723 54.8004 165.968 54.9578 165.205 54.9578C164.442 54.9578 163.687 54.8004 162.987 54.4954C162.288 54.1904 161.658 53.7444 161.139 53.1853C160.619 52.6262 160.221 51.9659 159.968 51.2458C159.715 50.5257 159.614 49.7611 159.67 49ZM169.42 49C169.42 46.18 167.52 44.29 165.2 44.29C162.88 44.29 161 46.15 161 49C161 51.85 162.9 53.72 165.21 53.72C167.52 53.72 169.42 51.8 169.42 49Z" fill="white"/>
<path d="M172.89 43.1899H175.13L180.34 53.1899H180.67V43.1899H182V54.7599H179.77L174.56 44.7599H174.23V54.7599H172.9L172.89 43.1899Z" fill="white"/>
<path d="M40.32 1.37L34.77 0.21C33.6747 0.0793847 32.573 0.00927829 31.47 0L58.35 46.56C58.5 46.3 58.64 46.04 58.78 45.78L36.8 7.71L60.51 41.87L60.81 40.98L36.72 6.27L62 36.1C62 35.76 62.1 35.43 62.14 35.1L36.66 5L62.3 29.31C62.3 28.93 62.3 28.55 62.22 28.18L36.61 3.93L60.92 21.82C60.79 21.4 60.64 20.98 60.49 20.56L36.62 3L57.37 14.3C57.07 13.83 56.75 13.37 56.43 12.92L36.7 2.17L51.7 7.71C51.1 7.19 50.49 6.71 49.86 6.22L36.86 1.42L44.6 3C43.2135 2.35657 41.7833 1.81188 40.32 1.37Z" fill="#5EB674"/>
<path d="M0.69 38.21L2.46 43.6C2.8942 44.6264 3.38495 45.6279 3.93 46.6L30.81 0H29.92L7.92 38.07L25.67 0.48C25.36 0.53 25.05 0.59 24.75 0.66L6.75 38.87L19.93 2.08L19 2.46L5.68 39.56L13.89 5.2L13 5.84L4.8 40.14L8.14 10.14C7.84 10.47 7.55 10.8 7.27 11.14L4 40.6L3.35 17C3.1 17.5 2.86 18 2.63 18.51L3.2 41L0.5 25.2C0.35 26 0.22 26.76 0.13 27.54L2.47 41.18L0 33.66C0.121423 35.1912 0.352009 36.7117 0.69 38.21Z" fill="#5EB674"/>
<path d="M52.39 54.1499L56.18 49.9199C56.8346 49.0359 57.4422 48.118 58 47.1699H4.25C4.4 47.4199 4.55 47.6799 4.71 47.9299H48.71L7.23 51.3799C7.43 51.6199 7.64 51.8599 7.85 52.0899L50 48.5799L11.54 55.5799L12.34 56.1999L51.12 49.1999L17.21 59.2199L18.21 59.7099L52 49.6599L24.39 61.7599C24.82 61.8599 25.25 61.9499 25.69 62.0199L52.84 50.1299L32.68 62.4599C33.24 62.4599 33.79 62.3899 34.35 62.3299L53.52 50.6099L41.23 60.8099C41.98 60.5599 42.71 60.2799 43.44 59.9699L54.08 51.1299L48.8 56.9999C50.066 56.1407 51.266 55.188 52.39 54.1499Z" fill="#5EB674"/>
</g>
<defs>
<clipPath id="clip0_1_491">
<rect width="223.08" height="62.46" fill="white"/>
</clipPath>
</defs>
</svg>
